HIERARCHY
ROOT Hips
{
  OFFSET 0 0 0
  CHANNELS 6 Xposition Yposition Zposition Zrotation Xrotation Yrotation
  JOINT Spine
  {
    OFFSET 0 10.1816 0.131521
    CHANNELS 6 Xposition Yposition Zposition Zrotation Xrotation Yrotation
    JOINT Spine1
    {
      OFFSET 0 10.0835 -1.0008
      CHANNELS 6 Xposition Yposition Zposition Zrotation Xrotation Yrotation
      JOINT Spine2
      {
        OFFSET 0 9.10001 -1.37342
        CHANNELS 6 Xposition Yposition Zposition Zrotation Xrotation Yrotation
        JOINT Neck
        {
          OFFSET 0 16.6717 -2.51617
          CHANNELS 6 Xposition Yposition Zposition Zrotation Xrotation Yrotation
          JOINT Head
          {
            OFFSET 0 9.61788 1.68501
            CHANNELS 6 Xposition Yposition Zposition Zrotation Xrotation Yrotation
            End Site
            {
              OFFSET 0 0 0
            }
          }
        }
        JOINT LeftShoulder
        {
          OFFSET 4.57045 10.946 -2.62799
          CHANNELS 6 Xposition Yposition Zposition Zrotation Xrotation Yrotation
          JOINT LeftArm
          {
            OFFSET 10.5924 -0.524583 -2.23212
            CHANNELS 6 Xposition Yposition Zposition Zrotation Xrotation Yrotation
            JOINT LeftForeArm
            {
              OFFSET 27.8415 -8.94286e-05 3.74589e-05
              CHANNELS 6 Xposition Yposition Zposition Zrotation Xrotation Yrotation
              JOINT LeftHand
              {
                OFFSET 28.3288 -1.74407e-05 3.78045e-05
                CHANNELS 6 Xposition Yposition Zposition Zrotation Xrotation Yrotation
                End Site
                {
                  OFFSET 0 0 0
                }
              }
            }
          }
        }
        JOINT RightShoulder
        {
          OFFSET -4.56997 10.9462 -2.62802
          CHANNELS 6 Xposition Yposition Zposition Zrotation Xrotation Yrotation
          JOINT RightArm
          {
            OFFSET -10.5928 -0.524798 -2.2321
            CHANNELS 6 Xposition Yposition Zposition Zrotation Xrotation Yrotation
            JOINT RightForeArm
            {
              OFFSET -27.8415 -3.30792e-05 1.16763e-05
              CHANNELS 6 Xposition Yposition Zposition Zrotation Xrotation Yrotation
              JOINT RightHand
              {
                OFFSET -28.3288 0 5.5816e-05
                CHANNELS 6 Xposition Yposition Zposition Zrotation Xrotation Yrotation
                End Site
                {
                  OFFSET 0 0 0
                }
              }
            }
          }
        }
      }
    }
  }
  JOINT LeftUpLeg
  {
    OFFSET 8.20778 -6.75171 -1.59956
    CHANNELS 6 Xposition Yposition Zposition Zrotation Xrotation Yrotation
    JOINT LeftLeg
    {
      OFFSET 0 -44.3705 0.284643
      CHANNELS 6 Xposition Yposition Zposition Zrotation Xrotation Yrotation
      JOINT LeftFoot
      {
        OFFSET 0 -44.4279 -2.98219
        CHANNELS 6 Xposition Yposition Zposition Zrotation Xrotation Yrotation
        JOINT LeftToeBase
        {
          OFFSET 0 -8.72867 10.7106
          CHANNELS 6 Xposition Yposition Zposition Zrotation Xrotation Yrotation
          End Site
          {
            OFFSET 0 0 0
          }
        }
      }
    }
  }
  JOINT RightUpLeg
  {
    OFFSET -8.2078 -6.75166 -1.59956
    CHANNELS 6 Xposition Yposition Zposition Zrotation Xrotation Yrotation
    JOINT RightLeg
    {
      OFFSET 0 -44.3705 0.286156
      CHANNELS 6 Xposition Yposition Zposition Zrotation Xrotation Yrotation
      JOINT RightFoot
      {
        OFFSET 0 -44.4277 -2.98379
        CHANNELS 6 Xposition Yposition Zposition Zrotation Xrotation Yrotation
        JOINT RightToeBase
        {
          OFFSET 0 -8.72867 10.7106
          CHANNELS 6 Xposition Yposition Zposition Zrotation Xrotation Yrotation
          End Site
          {
            OFFSET 0 0 0
          }
        }
      }
    }
  }
}
MOTION
Frames:	8
Frame Time:	0.0333333
6.32664 110.263 297.562 4.7743 -13.1146 12.7985 9.23415e-06 10.1816 0.131521 -1.40987 1.01059 -1.17967 2.5194e-07 10.0835 -1.0008 0.0557193 2.0081 -1.32436 3.45749e-07 9.10001 -1.37342 0.0557173 2.00808 -1.32436 6.33429e-07 16.6717 -2.51617 -4.3921 -16.1407 -4.09697 -4.24232e-07 9.61788 1.68501 -1.33988 -5.8109 -4.1803 4.57045 10.946 -2.62799 36.3192 3.98837 -13.3364 10.5924 -0.524583 -2.23212 14.2309 -42.9133 -17.4702 27.8415 -8.94286e-05 3.74589e-05 -1.72325 -22.7221 -20.587 28.3288 -1.74407e-05 3.78045e-05 6.7285 -12.999 -18.3068 -4.56997 10.9462 -2.62802 -22.1909 5.08376 21.3929 -10.5928 -0.524798 -2.2321 -52.514 -41.3901 -6.3311 -27.8415 -3.30792e-05 1.16763e-05 1.3254 -8.83279 23.4382 -28.3288 -1.58142e-07 5.5816e-05 1.64007 -9.39365 4.51339 8.20778 -6.75171 -1.59956 -9.7637 -29.0051 -6.82188 -4.11016e-07 -44.3705 0.284643 0.742882 5.96706 4.33451 4.71639e-07 -44.4279 -2.98219 -13.1069 23.1573 2.83876 -2.96099e-06 -8.72867 10.7106 3.26662e-05 -2.74243e-05 0.000782338 -8.2078 -6.75166 -1.59956 -9.74744 -37.812 -10.6099 8.43557e-08 -44.3705 0.286156 4.57685 45.0085 -22.916 9.64458e-07 -44.4277 -2.98379 13.5057 -4.21372 -0.596597 -2.36044e-06 -8.72867 10.7106 4.8505e-07 -3.31848e-06 0.00436339 
6.02812 112.468 302.995 3.79652 -24.5945 8.63261 9.23415e-06 10.1816 0.131521 -1.69679 1.6377 -1.64848 2.5194e-07 10.0835 -1.0008 -0.215184 3.25055 -1.64974 3.45749e-07 9.10001 -1.37342 -0.215184 3.25055 -1.64974 6.33429e-07 16.6717 -2.51617 -4.62982 -11.8642 -3.26499 -4.24232e-07 9.61788 1.68501 -0.717331 -6.29187 -3.20355 4.57045 10.946 -2.62799 37.1228 0.591335 -19.1902 10.5924 -0.524583 -2.23212 11.6819 -37.6878 -15.9805 27.8415 -8.94286e-05 3.74589e-05 -4.0505 -16.6575 -22.9055 28.3288 -1.74407e-05 3.78045e-05 7.83358 -7.88436 -16.7652 -4.56997 10.9462 -2.62802 -24.0696 3.71852 31.9885 -10.5928 -0.524798 -2.2321 -43.7734 -34.4864 -6.79227 -27.8415 -3.30792e-05 1.16763e-05 5.76927 -6.58778 28.3258 -28.3288 -1.58142e-07 5.5816e-05 -4.87467 -10.9562 3.04855 8.20778 -6.75171 -1.59956 -5.10001 -28.6239 -5.72882 -4.11016e-07 -44.3705 0.284643 -3.33504 -3.09859 4.60103 4.71639e-07 -44.4279 -2.98219 -16.1243 29.534 3.31672 -2.96099e-06 -8.72867 10.7106 3.01083e-05 -2.54203e-05 0.000845133 -8.2078 -6.75166 -1.59956 -8.36156 -49.69 -8.90079 8.43557e-08 -44.3705 0.286156 7.39542 54.1381 -21.8634 9.64458e-07 -44.4277 -2.98379 8.87956 -5.154 -0.854408 -2.36044e-06 -8.72867 10.7106 0.000269468 2.70255e-05 0.00471907 
5.62325 117.319 310.492 2.50596 -35.8406 4.4024 9.23415e-06 10.1816 0.131521 -1.89859 2.00328 -1.90426 2.5194e-07 10.0835 -1.0008 -0.616833 3.97311 -1.85264 3.45749e-07 9.10001 -1.37342 -0.616833 3.97311 -1.85264 6.33429e-07 16.6717 -2.51617 -6.11284 -9.85527 -2.67336 -4.24232e-07 9.61788 1.68501 -0.18731 -6.5705 -2.40332 4.57045 10.946 -2.62799 32.9259 -0.636345 -20.6593 10.5924 -0.524583 -2.23212 9.3825 -34.6179 -19.9584 27.8415 -8.94286e-05 3.74589e-05 -6.18224 -9.46564 -25.2433 28.3288 -1.74407e-05 3.78045e-05 7.39482 -2.88534 -14.763 -4.56997 10.9462 -2.62802 -22.3452 2.9388 40.9741 -10.5928 -0.524798 -2.2321 -38.3467 -29.8398 -6.32162 -27.8415 -3.30792e-05 1.16763e-05 9.10139 -2.84223 32.4466 -28.3288 -1.58142e-07 5.5816e-05 -8.34643 -11.1406 1.52866 8.20778 -6.75171 -1.59956 -2.34436 -29.4987 -4.71971 -4.11016e-07 -44.3705 0.284643 -2.66713 -3.26294 6.03169 4.71639e-07 -44.4279 -2.98219 -17.9741 30.6816 3.67531 -2.96099e-06 -8.72867 10.7106 2.72995e-05 -2.32212e-05 0.000906423 -8.2078 -6.75166 -1.59956 -4.45197 -57.9946 -5.13316 8.43557e-08 -44.3705 0.286156 8.70357 64.1254 -22.777 9.64458e-07 -44.4277 -2.98379 6.66468 -6.22658 -0.793401 -2.36044e-06 -8.72867 10.7106 0.000383087 3.6958e-05 0.00507274 
5.27173 121.991 316.356 0.729398 -47.1866 2.05138 9.23415e-06 10.1816 0.131521 -1.63289 2.29601 -1.79216 2.5194e-07 10.0835 -1.0008 -0.632515 4.56572 -1.8095 3.45749e-07 9.10001 -1.37342 -0.632516 4.56571 -1.80951 6.33429e-07 16.6717 -2.51617 -6.30212 -8.07761 -2.45929 -4.24232e-07 9.61788 1.68501 0.293474 -6.81469 -1.69762 4.57045 10.946 -2.62799 29.3487 -1.31966 -21.6904 10.5924 -0.524583 -2.23212 6.54474 -30.6725 -22.8759 27.8415 -8.94286e-05 3.74589e-05 -8.65804 -3.10691 -29.6428 28.3288 -1.74407e-05 3.78045e-05 6.75369 -0.508388 -12.2397 -4.56997 10.9462 -2.62802 -18.9826 3.5252 45.492 -10.5928 -0.524798 -2.2321 -34.7943 -26.5247 -5.22029 -27.8415 -3.30792e-05 1.16763e-05 11.5619 1.95359 37.4044 -28.3288 -1.58142e-07 5.5816e-05 -9.23943 -10.3317 -0.739378 8.20778 -6.75171 -1.59956 -2.01189 -29.9435 -4.76634 -4.11016e-07 -44.3705 0.284643 -0.036624 -3.87609 8.17007 4.71639e-07 -44.4279 -2.98219 -16.2464 31.5406 4.15948 -2.96099e-06 -8.72867 10.7106 2.42633e-05 -2.08499e-05 0.000965689 -8.2078 -6.75166 -1.59956 -3.83713 -63.839 -4.5929 8.43557e-08 -44.3705 0.286156 9.82196 69.9286 -25.7036 9.64458e-07 -44.4277 -2.98379 3.01876 -3.81097 -0.942325 -2.36044e-06 -8.72867 10.7106 0.000466833 4.24942e-05 0.00550512 
4.95179 129.273 323.072 -3.54432 -59.4408 -2.42912 9.23415e-06 10.1816 0.131521 -0.603648 2.74178 -1.15943 2.5194e-07 10.0835 -1.0008 -0.720094 5.47977 -1.72486 3.45749e-07 9.10001 -1.37342 -0.720089 5.47976 -1.72486 6.33429e-07 16.6717 -2.51617 -5.44155 -5.59755 -2.63285 -4.24232e-07 9.61788 1.68501 0.718011 -7.11388 -1.05193 4.57045 10.946 -2.62799 27.0251 -2.02235 -24.0488 10.5924 -0.524583 -2.23212 3.89411 -27.1427 -25.4671 27.8415 -8.94286e-05 3.74589e-05 -9.35855 1.83691 -30.2305 28.3288 -1.74407e-05 3.78045e-05 3.09544 1.6189 -11.6885 -4.56997 10.9462 -2.62802 -18.2 4.17512 47.3625 -10.5928 -0.524798 -2.2321 -28.6152 -23.3923 -2.56481 -27.8415 -3.30792e-05 1.16763e-05 12.6027 4.52088 38.6732 -28.3288 -1.58142e-07 5.5816e-05 -8.2187 -10.4783 -0.509639 8.20778 -6.75171 -1.59956 0.475079 -27.9552 -3.60462 -4.11016e-07 -44.3705 0.284643 -0.423864 -3.97575 6.07399 4.71639e-07 -44.4279 -2.98219 -13.5095 28.534 3.43651 -2.96099e-06 -8.72867 10.7106 2.10232e-05 -1.83294e-05 0.00102241 -8.2078 -6.75166 -1.59956 -0.817602 -64.7164 -2.16235 8.43557e-08 -44.3705 0.286156 9.11229 73.1406 -26.4253 9.64458e-07 -44.4277 -2.98379 0.318652 -3.34651 -1.10379 -2.36044e-06 -8.72867 10.7106 0.000523368 4.40688e-05 0.00606338 
4.56262 134.849 331.368 -10.8967 -71.7613 -11.3515 9.23415e-06 10.1816 0.131521 -0.390358 3.4242 -0.803738 2.5194e-07 10.0835 -1.0008 -0.893933 6.83615 -1.34376 3.45749e-07 9.10001 -1.37342 -0.893933 6.8361 -1.34376 6.33429e-07 16.6717 -2.51617 -5.02187 -3.01192 -2.84874 -4.24232e-07 9.61788 1.68501 1.22802 -8.01782 -0.417782 4.57045 10.946 -2.62799 26.7184 -2.22034 -24.9183 10.5924 -0.524583 -2.23212 1.11881 -24.1298 -27.6053 27.8415 -8.94286e-05 3.74589e-05 -8.68396 4.44687 -29.098 28.3288 -1.74407e-05 3.78045e-05 -2.90817 3.25765 -12.8027 -4.56997 10.9462 -2.62802 -22.0118 3.88811 48.9241 -10.5928 -0.524798 -2.2321 -20.7539 -20.0221 -0.234633 -27.8415 -3.30792e-05 1.16763e-05 12.5503 3.67487 37.6884 -28.3288 -1.58142e-07 5.5816e-05 -5.26464 -11.8993 2.09951 8.20778 -6.75171 -1.59956 -1.15398 -36.3214 -4.58612 -4.11016e-07 -44.3705 0.284643 4.46651 16.1472 1.49345 4.71639e-07 -44.4279 -2.98219 -13.9285 16.0912 2.60661 -2.96099e-06 -8.72867 10.7106 1.76026e-05 -1.56827e-05 0.00107607 -8.2078 -6.75166 -1.59956 2.50962 -64.5516 0.706353 8.43557e-08 -44.3705 0.286156 8.68799 73.3412 -28.246 9.64458e-07 -44.4277 -2.98379 -5.68388 -2.70981 -0.957039 -2.36044e-06 -8.72867 10.7106 0.000555352 4.21168e-05 0.00669521 
4.16226 140.935 341.076 -35.6718 -81.7082 -38.9016 9.23415e-06 10.1816 0.131521 -0.0195281 4.07885 -0.213159 2.5194e-07 10.0835 -1.0008 -0.96497 8.12738 -0.656906 3.45749e-07 9.10001 -1.37342 -0.964965 8.12739 -0.656908 6.33429e-07 16.6717 -2.51617 -5.32759 -0.97009 -2.86824 -4.24232e-07 9.61788 1.68501 1.67868 -8.85876 0.277273 4.57045 10.946 -2.62799 28.9373 -1.87729 -23.6771 10.5924 -0.524583 -2.23212 1.25428 -23.6494 -28.6873 27.8415 -8.94286e-05 3.74589e-05 -4.22498 8.42982 -25.7544 28.3288 -1.74407e-05 3.78045e-05 -8.57539 -1.90376 -14.4942 -4.56997 10.9462 -2.62802 -27.7319 3.02154 48.9846 -10.5928 -0.524798 -2.2321 -18.2247 -18.9077 0.171999 -27.8415 -3.30792e-05 1.16763e-05 8.91837 5.15026 34.4534 -28.3288 -1.58142e-07 5.5816e-05 -1.21354 -17.484 3.74295 8.20778 -6.75171 -1.59956 -2.55978 -41.8023 -5.4901 -4.11016e-07 -44.3705 0.284643 10.2954 30.7061 -1.63466 4.71639e-07 -44.4279 -2.98219 -17.5026 8.81159 2.48737 -2.96099e-06 -8.72867 10.7106 1.4025e-05 -1.29327e-05 0.00112614 -8.2078 -6.75166 -1.59956 4.8678 -63.6949 2.03518 8.43557e-08 -44.3705 0.286156 9.9068 71.4748 -32.4769 9.64458e-07 -44.4277 -2.98379 -13.2861 -1.99549 -0.355533 -2.36044e-06 -8.72867 10.7106 0.000565446 3.70729e-05 0.00734829 
3.7104 148.091 350.032 -114.683 -83.5589 -120.561 9.23415e-06 10.1816 0.131521 0.206126 4.29203 0.238825 2.5194e-07 10.0835 -1.0008 -1.21089 8.54071 -0.321032 3.45749e-07 9.10001 -1.37342 -1.21089 8.54069 -0.321032 6.33429e-07 16.6717 -2.51617 -5.22769 0.890019 -2.92066 -4.24232e-07 9.61788 1.68501 1.6398 -8.5221 1.29936 4.57045 10.946 -2.62799 32.5868 -0.931531 -21.5213 10.5924 -0.524583 -2.23212 1.50345 -23 -24.7576 27.8415 -8.94286e-05 3.74589e-05 -7.61703 6.07643 -33.3042 28.3288 -1.74407e-05 3.78045e-05 -13.9993 1.96895 -15.3633 -4.56997 10.9462 -2.62802 -31.0222 2.42794 47.7229 -10.5928 -0.524798 -2.2321 -14.9146 -19.8666 -0.673545 -27.8415 -3.30792e-05 1.16763e-05 11.747 1.1725 40.2333 -28.3288 -1.58142e-07 5.5816e-05 5.42339 -12.6443 5.35028 8.20778 -6.75171 -1.59956 -0.722439 -41.969 -3.40131 -4.11016e-07 -44.3705 0.284643 10.8751 40.7119 -4.64143 4.71639e-07 -44.4279 -2.98219 -20.2954 7.06099 2.11278 -2.96099e-06 -8.72867 10.7106 1.03138e-05 -1.01024e-05 0.00117211 -8.2078 -6.75166 -1.59956 5.83546 -58.5304 2.07551 8.43557e-08 -44.3705 0.286156 8.58714 66.1402 -33.3581 9.64458e-07 -44.4277 -2.98379 -16.6804 -0.653388 0.332007 -2.36044e-06 -8.72867 10.7106 0.000556311 2.93718e-05 0.00797029 
